<svg xmlns="http://www.w3.org/2000/svg" version="1.1" xmlns:xlink="http://www.w3.org/1999/xlink" xmlns:svgjs="http://svgjs.dev/svgjs" width="2000" height="2250" viewBox="0 0 2000 2250"><g transform="matrix(1,0,0,1,0,0)"><svg viewBox="0 0 320 360" data-background-color="#ffffff" preserveAspectRatio="xMidYMid meet" height="2250" width="2000" xmlns="http://www.w3.org/2000/svg" xmlns:xlink="http://www.w3.org/1999/xlink"><g id="tight-bounds" transform="matrix(1,0,0,1,0,0)"><svg viewBox="0 0 320 360" height="360" width="320"><g><svg></svg></g><g><svg viewBox="0 0 320 360" height="360" width="320"><g><path d="M320 187.111c0-45.764-20.238-86.866-52.203-114.908-28.043-31.964-69.145-52.203-114.908-52.203-84.302 0-152.889 68.587-152.889 152.889 0 45.753 20.231 86.848 52.185 114.891 28.043 31.975 69.152 52.22 114.926 52.22 0.299 0 0.59-0.021 0.889-0.021 0.299 0 0.59 0.021 0.889 0.021 83.456 0 151.111-67.655 151.111-151.111 0-0.299-0.021-0.59-0.021-0.889 0-0.299 0.021-0.59 0.021-0.889zM59.833 263.097c-15.093-21.255-24.071-47.143-24.256-75.097 0.48-72.928 59.492-131.943 132.423-132.423 27.954 0.185 53.845 9.163 75.097 24.256 24.366 23.627 39.57 56.64 39.57 93.056 0 71.559-58.219 129.778-129.778 129.778-36.416 0-69.429-15.204-93.056-39.57zM3.556 172.889c0-82.343 66.99-149.333 149.333-149.333 35.051 0 67.292 12.167 92.8 32.462-22.98-13.824-49.863-21.796-78.578-21.796-84.302 0-152.889 68.587-152.889 152.889 0 28.708 7.968 55.584 21.785 78.56-20.288-25.5-32.452-57.739-32.451-92.782zM167.111 318.667c-35.84 0-68.363-14.418-92.107-37.743 21.952 15.89 48.864 25.298 77.885 25.298 73.522 0 133.333-59.812 133.333-133.333 0-29.02-9.408-55.932-25.298-77.885 23.324 23.744 37.742 56.267 37.743 92.107 0 72.54-59.015 131.556-131.556 131.556z" fill="#00a0b9" fill-rule="nonzero" stroke="none" stroke-width="1" stroke-linecap="butt" stroke-linejoin="miter" stroke-miterlimit="10" stroke-dasharray="" stroke-dashoffset="0" font-family="none" font-weight="none" font-size="none" text-anchor="none" style="mix-blend-mode: normal" data-fill-palette-color="tertiary"></path></g><g transform="matrix(1,0,0,1,64,163.43155996393148)"><svg viewBox="0 0 192 33.13688007213706" height="33.13688007213706" width="192"><g><svg viewBox="0 0 192 33.13688007213706" height="33.13688007213706" width="192"><g><svg viewBox="0 0 192 33.13688007213706" height="33.13688007213706" width="192"><g><svg viewBox="0 0 192 33.13688007213706" height="33.13688007213706" width="192"><g id="textblocktransform"><svg viewBox="0 0 192 33.13688007213706" height="33.13688007213706" width="192" id="textblock"><g><svg viewBox="0 0 192 33.13688007213706" height="33.13688007213706" width="192"><g transform="matrix(1,0,0,1,0,0)"><svg width="192" viewBox="2.35 -36.65 278.42999999999995 47.849999999999994" height="33.13688007213706" data-palette-color="#a30101"><g class="wordmark-text-0" data-fill-palette-color="primary" id="text-0"><path d="M29.2-6.45L29.2-6.45Q29.2-4.65 28.1-3.3 27-1.95 25.15-1.07 23.3-0.2 21.05 0.25 18.8 0.7 16.5 0.7L16.5 0.7Q9.85 0.7 6.1-4.05 2.35-8.8 2.35-17.45L2.35-17.45Q2.35-26.1 6.23-30.85 10.1-35.6 17-35.6L17-35.6Q19.05-35.6 21.05-35.2 23.05-34.8 24.7-34.05 26.35-33.3 27.35-32.18 28.35-31.05 28.35-29.55L28.35-29.55Q28.35-28.05 26.95-26.78 25.55-25.5 22.75-25.55L22.75-25.55Q22.4-29.55 20.98-31.4 19.55-33.25 17.1-33.25L17.1-33.25Q13.45-33.25 11.75-29.3 10.05-25.35 10.05-17.45L10.05-17.45Q10.05-9.55 11.7-5.6 13.35-1.65 16.9-1.65L16.9-1.65Q18.65-1.65 19.98-2.55 21.3-3.45 22.15-5.3 23-7.15 23.35-9.95L23.35-9.95Q24.75-10.15 26.08-9.83 27.4-9.5 28.3-8.68 29.2-7.85 29.2-6.45ZM38.95 0.55L38.95 0.55Q37.4 0.55 36.17-0.48 34.95-1.5 34.95-3.35L34.95-3.35 34.95-18.8Q34.95-20.25 34.62-20.85 34.3-21.45 33.65-21.45L33.65-21.45Q33.4-21.45 33-21.35 32.6-21.25 32.35-20.85L32.35-20.85Q31.7-21.85 31.7-23L31.7-23Q31.7-24.55 32.75-25.55 33.8-26.55 35.8-26.55L35.8-26.55Q38.2-26.55 39.62-24.85 41.05-23.15 40.95-19.6L40.95-19.6 40.95-18.3 40.35-18.8Q41.05-22.75 42.82-24.65 44.6-26.55 47.5-26.55L47.5-26.55Q50.35-26.55 52.17-25.03 54-23.5 54-20.8L54-20.8Q54-18.85 52.8-17.57 51.6-16.3 49.8-16.25L49.8-16.25Q47.6-16.25 46.65-17.35L46.65-17.35Q47.2-18.35 47.37-19.07 47.55-19.8 47.55-20.8L47.55-20.8Q47.55-22.05 47.05-22.73 46.55-23.4 45.5-23.4L45.5-23.4Q44.35-23.4 43.5-22.13 42.65-20.85 42.2-18.25 41.75-15.65 41.75-11.75L41.75-11.75Q41.75-9.4 41.77-7.78 41.8-6.15 41.9-5 42-3.85 42.22-2.9 42.45-1.95 42.9-0.95L42.9-0.95Q42.45-0.55 41.42-0.03 40.4 0.5 38.95 0.55ZM66.84 11.2L66.84 11.2Q64.34 11.2 62.15 10.75 59.95 10.3 58.6 9.15 57.25 8 57.25 5.95L57.25 5.95Q57.25 4.3 58.55 3.28 59.85 2.25 61.95 2.25L61.95 2.25Q64.15 2.25 65.05 3.4L65.05 3.4Q64.3 3.9 63.95 4.6 63.6 5.3 63.6 5.95L63.6 5.95Q63.6 6.85 63.97 7.58 64.34 8.3 65.09 8.72 65.84 9.15 67 9.15L67 9.15Q70.2 9.15 71.84 6.18 73.5 3.2 73.5-1.6L73.5-1.6Q73.5-2.25 73.65-3.45 73.8-4.65 74-5.9 74.2-7.15 74.34-8L74.34-8 74.75-9.3Q74.09-4.8 72-2.23 69.9 0.35 65.7 0.35L65.7 0.35Q61.75 0.35 59.8-1.95 57.85-4.25 57.85-9.7L57.85-9.7 57.85-18.5Q57.85-19.65 57.67-21.5 57.5-23.35 56.85-25.05L56.85-25.05Q57.55-25.6 58.5-26.08 59.45-26.55 60.8-26.55L60.8-26.55Q62.5-26.55 63.62-25.63 64.75-24.7 64.75-23L64.75-23 64.75-10.8Q64.75-6.95 65.37-4.9 66-2.85 68-2.85L68-2.85Q69.15-2.85 70.09-3.58 71.05-4.3 71.72-5.73 72.4-7.15 72.75-9.25 73.09-11.35 73.09-14.15L73.09-14.15Q73.09-16.55 73.07-18.2 73.05-19.85 72.95-21 72.84-22.15 72.62-23.1 72.4-24.05 71.95-25.1L71.95-25.1Q72.4-25.5 73.42-26.03 74.45-26.55 75.9-26.55L75.9-26.55Q77.55-26.55 78.7-25.53 79.84-24.5 79.84-22.65L79.84-22.65 79.9-2.65Q79.9 2.5 78.2 5.53 76.5 8.55 73.57 9.88 70.65 11.2 66.84 11.2ZM101.04-26.55L101.04-26.55Q103.54-26.55 105.27-25.55 106.99-24.55 108.04-22.8 109.09-21.05 109.57-18.75 110.04-16.45 110.04-13.85L110.04-13.85Q110.04-6.7 107.09-3 104.14 0.7 99.19 0.7L99.19 0.7Q97.04 0.7 95.49-0.05 93.94-0.8 93.24-2.2L93.24-2.2 93.24-0.2Q93.24 0.9 93.32 2.55 93.39 4.2 93.64 6.03 93.89 7.85 94.34 9.5L94.34 9.5Q93.89 9.9 92.87 10.45 91.84 11 90.39 11L90.39 11Q88.74 11 87.59 10.08 86.44 9.15 86.44 7.5L86.44 7.5 86.49-18.6Q86.49-19.95 86.19-20.58 85.89-21.2 85.19-21.2L85.19-21.2Q84.94-21.2 84.54-21.1 84.14-21 83.89-20.65L83.89-20.65Q83.54-21.2 83.39-21.78 83.24-22.35 83.24-22.8L83.24-22.8Q83.24-24.35 84.39-25.33 85.54-26.3 87.39-26.3L87.39-26.3Q90.24-26.3 91.54-23.83 92.84-21.35 92.84-17.15L92.84-17.15 92.84-14.85 91.79-15.35Q92.14-18.2 92.89-20.33 93.64-22.45 94.82-23.83 95.99-25.2 97.54-25.88 99.09-26.55 101.04-26.55ZM98.94-22.9L98.94-22.9Q97.44-22.9 96.39-21.8 95.34-20.7 94.67-18.85 93.99-17 93.67-14.78 93.34-12.55 93.34-10.35L93.34-10.35Q93.34-8.4 93.57-6.98 93.79-5.55 94.27-4.63 94.74-3.7 95.54-3.25 96.34-2.8 97.44-2.8L97.44-2.8Q100.29-2.8 101.49-5.7 102.69-8.6 102.69-13.9L102.69-13.9Q102.69-16 102.52-17.68 102.34-19.35 101.94-20.5 101.54-21.65 100.82-22.28 100.09-22.9 98.94-22.9ZM121.89 0.5L121.89 0.5Q118.84 0.5 117.24-1.43 115.64-3.35 115.64-6.65L115.64-6.65 115.64-29Q115.64-30.65 116.77-31.58 117.89-32.5 119.59-32.5L119.59-32.5Q121.09-32.5 122.09-31.95 123.09-31.4 123.49-31L123.49-31Q122.84-28.6 122.67-26.5 122.49-24.4 122.49-21.3L122.49-21.3 122.49-7.25Q122.49-5.95 123.07-5.28 123.64-4.6 124.74-4.6L124.74-4.6Q125.24-4.6 125.87-4.75 126.49-4.9 126.69-5.25L126.69-5.25Q127.09-4.75 127.24-4.15 127.39-3.55 127.39-3.1L127.39-3.1Q127.39-1.55 125.92-0.53 124.44 0.5 121.89 0.5ZM111.89-22.55L111.89-22.55 111.94-24.2Q111.99-25.05 112.52-25.43 113.04-25.8 113.74-25.8L113.74-25.8 122.44-25.8Q122.64-25.8 123.52-25.83 124.39-25.85 125.52-25.88 126.64-25.9 127.52-25.93 128.39-25.95 128.59-26L128.59-26 128.54-24.4Q128.49-23.6 127.99-23.18 127.49-22.75 126.79-22.75L126.79-22.75 114.89-22.75Q114.39-22.75 113.39-22.7 112.39-22.65 111.89-22.55ZM143.54 0.7L143.54 0.7Q137.69 0.7 134.44-2.9 131.19-6.5 131.19-12.9L131.19-12.9Q131.19-19.35 134.44-22.95 137.69-26.55 143.54-26.55L143.54-26.55Q149.39-26.55 152.64-22.95 155.89-19.35 155.89-12.9L155.89-12.9Q155.89-6.5 152.64-2.9 149.39 0.7 143.54 0.7ZM143.54-1.6L143.54-1.6Q146.09-1.6 147.29-4.45 148.49-7.3 148.49-12.9L148.49-12.9Q148.49-18.55 147.29-21.4 146.09-24.25 143.54-24.25L143.54-24.25Q140.94-24.25 139.74-21.4 138.54-18.55 138.54-12.9L138.54-12.9Q138.54-7.3 139.74-4.45 140.94-1.6 143.54-1.6Z" fill="#a30101" data-fill-palette-color="primary"></path><path d="M174.04 0.75L174.04 0.75Q172.34 0.75 171.19-0.2 170.04-1.15 170.04-2.8L170.04-2.8 170.04-27.55Q170.04-28.35 169.96-29.45 169.89-30.55 169.69-31.75 169.49-32.95 169.04-34.05L169.04-34.05Q170.64-34.8 172.94-35.2 175.24-35.6 178.34-35.6L178.34-35.6Q185.64-35.6 189.61-33.2 193.59-30.8 193.59-25.25L193.59-25.25Q193.59-19.65 189.59-16.57 185.59-13.5 178.19-13.5L178.19-13.5Q177.69-13.5 177.19-13.5 176.69-13.5 176.14-13.55L176.14-13.55 175.79-15.95Q176.29-15.9 176.76-15.88 177.24-15.85 177.84-15.85L177.84-15.85Q180.94-15.85 182.69-17 184.44-18.15 185.19-20.15 185.94-22.15 185.94-24.75L185.94-24.75Q185.94-27.25 185.24-29.15 184.54-31.05 182.91-32.13 181.29-33.2 178.49-33.2L178.49-33.2Q178.09-33.2 177.71-33.2 177.34-33.2 177.04-33.15L177.04-33.15 177.04-6.9Q177.04-6.1 177.11-5.05 177.19-4 177.39-2.93 177.59-1.85 178.04-0.8L178.04-0.8Q177.59-0.4 176.54 0.18 175.49 0.75 174.04 0.75ZM204.59 0.5L204.59 0.5Q201.54 0.5 199.96-1.43 198.39-3.35 198.39-6.65L198.39-6.65 198.39-33.1Q198.39-34.8 199.51-35.73 200.64-36.65 202.34-36.65L202.34-36.65Q203.84-36.65 204.84-36.1 205.84-35.55 206.23-35.15L206.23-35.15Q205.59-32.75 205.41-30.63 205.23-28.5 205.23-25.4L205.23-25.4 205.23-7.25Q205.23-5.95 205.69-5.28 206.14-4.6 206.98-4.6L206.98-4.6Q207.34-4.6 207.79-4.75 208.23-4.9 208.44-5.25L208.44-5.25Q208.84-4.75 208.98-4.15 209.14-3.55 209.14-3.1L209.14-3.1Q209.14-1.55 207.79-0.53 206.44 0.5 204.59 0.5ZM233.18 0.5L233.18 0.5Q230.58 0.5 229.11-1.38 227.63-3.25 227.63-8.05L227.63-8.05 227.63-9.95 228.83-9.7Q228.33-6.95 226.93-4.63 225.53-2.3 223.33-0.9 221.13 0.5 218.13 0.5L218.13 0.5Q215.28 0.5 213.41-1 211.53-2.5 211.53-5.4L211.53-5.4Q211.53-7.8 212.86-9.47 214.18-11.15 216.21-12.2 218.23-13.25 220.28-13.85L220.28-13.85Q222.28-14.4 224.06-14.63 225.83-14.85 227.23-14.9L227.23-14.9 227.23-16.15Q227.23-20.2 226.33-22.25 225.43-24.3 223.08-24.3L223.08-24.3Q222.13-24.3 221.36-23.93 220.58-23.55 220.16-22.75 219.73-21.95 219.73-20.6L219.73-20.6Q219.73-19.6 220.08-18.55 220.43-17.5 221.48-16.9L221.48-16.9Q220.88-16.3 219.91-16 218.93-15.7 217.83-15.7L217.83-15.7Q215.38-15.7 214.06-17.05 212.73-18.4 212.73-20.35L212.73-20.35Q212.73-23.35 215.66-24.95 218.58-26.55 223.48-26.55L223.48-26.55Q229.08-26.55 231.68-24.05 234.28-21.55 234.28-15.7L234.28-15.7 234.28-7.25Q234.28-4.6 235.93-4.6L235.93-4.6Q236.18-4.6 236.61-4.75 237.03-4.9 237.28-5.25L237.28-5.25Q237.63-4.75 237.78-4.15 237.93-3.55 237.93-3.1L237.93-3.1Q237.93-1.65 236.66-0.58 235.38 0.5 233.18 0.5ZM221.73-3.95L221.73-3.95Q222.68-4.05 223.68-4.73 224.68-5.4 225.53-6.58 226.38-7.75 226.91-9.3 227.43-10.85 227.43-12.7L227.43-12.7Q226.48-12.7 225.48-12.63 224.48-12.55 223.56-12.3 222.63-12.05 221.83-11.6L221.83-11.6Q220.63-10.95 219.86-9.78 219.08-8.6 219.08-7.1L219.08-7.1Q219.08-5.85 219.71-4.83 220.33-3.8 221.73-3.95ZM248.38 0.5L248.38 0.5Q245.33 0.5 243.73-1.43 242.13-3.35 242.13-6.65L242.13-6.65 242.13-29Q242.13-30.65 243.26-31.58 244.38-32.5 246.08-32.5L246.08-32.5Q247.58-32.5 248.58-31.95 249.58-31.4 249.98-31L249.98-31Q249.33-28.6 249.16-26.5 248.98-24.4 248.98-21.3L248.98-21.3 248.98-7.25Q248.98-5.95 249.56-5.28 250.13-4.6 251.23-4.6L251.23-4.6Q251.73-4.6 252.36-4.75 252.98-4.9 253.18-5.25L253.18-5.25Q253.58-4.75 253.73-4.15 253.88-3.55 253.88-3.1L253.88-3.1Q253.88-1.55 252.41-0.53 250.93 0.5 248.38 0.5ZM238.38-22.55L238.38-22.55 238.43-24.2Q238.48-25.05 239.01-25.43 239.53-25.8 240.23-25.8L240.23-25.8 248.93-25.8Q249.13-25.8 250.01-25.83 250.88-25.85 252.01-25.88 253.13-25.9 254.01-25.93 254.88-25.95 255.08-26L255.08-26 255.03-24.4Q254.98-23.6 254.48-23.18 253.98-22.75 253.28-22.75L253.28-22.75 241.38-22.75Q240.88-22.75 239.88-22.7 238.88-22.65 238.38-22.55ZM270.43 0.7L270.43 0.7Q264.63 0.7 261.15-2.88 257.68-6.45 257.68-13L257.68-13Q257.68-19.3 260.98-22.93 264.28-26.55 270.48-26.55L270.48-26.55Q273.38-26.55 275.7-25.7 278.03-24.85 279.4-23.18 280.78-21.5 280.78-18.95L280.78-18.95Q280.78-15.25 277.78-13.28 274.78-11.3 270.03-11.3L270.03-11.3Q268.03-11.3 265.75-11.43 263.48-11.55 260.83-12.2L260.83-12.2 261.03-14.25Q262.08-14.15 263.2-14 264.33-13.85 265.98-13.8L265.98-13.8Q267.08-13.8 268.35-13.95 269.63-14.1 270.78-14.73 271.93-15.35 272.65-16.63 273.38-17.9 273.38-20.1L273.38-20.1Q273.38-21.8 272.93-22.68 272.48-23.55 271.75-23.9 271.03-24.25 270.23-24.25L270.23-24.25Q267.78-24.25 266.4-21.5 265.03-18.75 265.03-13.9L265.03-13.9Q265.03-10.05 265.88-7.78 266.73-5.5 268.38-4.53 270.03-3.55 272.38-3.55L272.38-3.55Q275.18-3.55 276.95-4.65 278.73-5.75 279.53-7.3L279.53-7.3Q280.08-7.1 280.3-6.45 280.53-5.8 279.98-4.4L279.98-4.4Q279.03-1.95 276.5-0.63 273.98 0.7 270.43 0.7Z" fill="#d9caa1" data-fill-palette-color="secondary"></path></g></svg></g></svg></g></svg></g></svg></g><g></g></svg></g></svg></g></svg></g></svg></g><defs></defs></svg><rect width="320" height="360" fill="none" stroke="none" visibility="hidden"></rect></g></svg></g></svg>