<svg xmlns="http://www.w3.org/2000/svg" version="1.1" xmlns:xlink="http://www.w3.org/1999/xlink" xmlns:svgjs="http://svgjs.dev/svgjs" width="100" height="63" viewBox="0 0 2000 843"><g transform="matrix(1,0,0,1,-1.2121212121212466,-0.3870466553685219)"><svg viewBox="0 0 396 167" data-background-color="#ffffff" preserveAspectRatio="xMidYMid meet" height="843" width="2000" xmlns="http://www.w3.org/2000/svg" xmlns:xlink="http://www.w3.org/1999/xlink"><g id="tight-bounds" transform="matrix(1,0,0,1,0.2400000000000091,0.07667472294963318)"><svg viewBox="0 0 395.52 166.84665055410073" height="166.84665055410073" width="395.52"><g><svg viewBox="0 0 395.52 166.84665055410073" height="166.84665055410073" width="395.52"><g transform="matrix(1,0,0,1,0,103.1179235980839)"><svg viewBox="0 0 395.52 63.72872695601684" height="63.72872695601684" width="395.52"><g id="textblocktransform"><svg viewBox="0 0 395.52 63.72872695601684" height="63.72872695601684" width="395.52" id="textblock"><g><svg viewBox="0 0 395.52 63.72872695601684" height="63.72872695601684" width="395.52"><g transform="matrix(1,0,0,1,0,0)"><svg width="395.52" viewBox="1.98 -41.19 337.90999999999997 54.199999999999996" height="63.72872695601684" data-palette-color="#a30101"><g class="wordmark-text-0" data-fill-palette-color="primary" id="text-0"><path d="M35.91-26.44L35.91-26.44 31.74-24.68Q31.25-26.27 30.43-27.59 29.61-28.91 28.48-29.85 27.34-30.79 25.9-31.31 24.46-31.84 22.75-31.84L22.75-31.84Q20.92-31.84 19.4-31.24 17.87-30.64 16.66-29.59 15.45-28.54 14.55-27.15 13.65-25.76 13.04-24.18 12.43-22.61 12.13-20.92 11.84-19.24 11.84-17.63L11.84-17.63Q11.84-15.06 12.44-12.52 13.04-9.99 14.34-7.96 15.65-5.93 17.72-4.68 19.8-3.42 22.75-3.42L22.75-3.42Q24.32-3.42 25.71-3.94 27.1-4.47 28.23-5.38 29.37-6.3 30.22-7.54 31.08-8.79 31.59-10.23L31.59-10.23 35.82-8.54Q34.89-6.23 33.28-4.48 31.67-2.73 29.6-1.59 27.54-0.44 25.18 0.13 22.83 0.71 20.43 0.71L20.43 0.71Q17.85 0.71 15.47 0.07 13.09-0.56 11.04-1.73 8.98-2.91 7.31-4.57 5.64-6.23 4.46-8.25 3.27-10.28 2.62-12.66 1.98-15.04 1.98-17.63L1.98-17.63Q1.98-20.21 2.62-22.6 3.27-24.98 4.46-27.01 5.64-29.05 7.31-30.71 8.98-32.37 11.04-33.54 13.09-34.72 15.47-35.35 17.85-35.99 20.43-35.99L20.43-35.99Q22.92-35.99 25.31-35.4 27.69-34.81 29.74-33.63 31.79-32.45 33.39-30.65 34.99-28.86 35.91-26.44ZM65.01-25.71L65.01-25.71 60.37-18.02Q60.08-18.99 59.62-20.21 59.15-21.44 58.47-22.5 57.79-23.56 56.83-24.28 55.88-25 54.64-25L54.64-25Q53.49-25 52.65-24.41 51.8-23.83 51.22-22.89 50.63-21.95 50.25-20.76 49.88-19.58 49.67-18.37 49.46-17.16 49.39-16.05 49.31-14.94 49.31-14.14L49.31-14.14 49.31 0 41.04 0 41.04-28.2 44.21-28.2 47.56-21.63Q48.24-23.22 49.12-24.55 50-25.88 51.14-26.84 52.29-27.81 53.75-28.34 55.2-28.88 57.03-28.88L57.03-28.88Q57.98-28.88 59.15-28.72 60.32-28.56 61.45-28.19 62.57-27.81 63.52-27.2 64.48-26.59 65.01-25.71ZM87.98-28.2L93.7-28.2 83.44-3.39Q81.68 0.85 79.52 5.02 77.36 9.18 74.85 13.01L74.85 13.01 71.63 11.06Q72.24 9.96 73.07 8.52 73.9 7.08 74.7 5.54 75.51 4 76.19 2.5 76.87 1 77.24-0.24L77.24-0.24 64.91-28.2 73.16-28.2 81.54-9.13 87.98-28.2ZM127.12-14.16L127.12-14.16Q127.12-11.08 126.19-8.4 125.26-5.71 123.5-3.72 121.75-1.73 119.21-0.59 116.67 0.56 113.44 0.56L113.44 0.56Q110.98 0.56 108.92-0.4 106.85-1.37 105.39-3.37L105.39-3.37 105.39 13.01 97.14 13.01 97.14-28.2 100.31-28.2 103.97-22.07Q104.51-23.61 105.45-24.87 106.39-26.12 107.62-27.01 108.85-27.91 110.33-28.39 111.81-28.88 113.44-28.88L113.44-28.88Q116.67-28.88 119.21-27.73 121.75-26.59 123.5-24.6 125.26-22.61 126.19-19.92 127.12-17.24 127.12-14.16ZM118.74-14.16L118.74-14.16Q118.74-15.23 118.63-16.44 118.52-17.65 118.25-18.85 117.99-20.04 117.51-21.14 117.03-22.24 116.3-23.08 115.57-23.93 114.53-24.43 113.49-24.93 112.13-24.93L112.13-24.93Q110.71-24.93 109.67-24.44 108.64-23.95 107.89-23.11 107.15-22.27 106.67-21.18 106.19-20.09 105.93-18.9 105.66-17.7 105.55-16.48 105.44-15.26 105.44-14.16L105.44-14.16Q105.44-13.18 105.58-12 105.73-10.82 106.05-9.62 106.36-8.42 106.88-7.3 107.39-6.18 108.13-5.3 108.88-4.42 109.87-3.89 110.86-3.37 112.13-3.37L112.13-3.37Q113.52-3.37 114.54-3.87 115.57-4.37 116.3-5.21 117.03-6.05 117.51-7.15 117.99-8.25 118.25-9.45 118.52-10.64 118.63-11.87 118.74-13.09 118.74-14.16ZM143.03-24.93L143.03 0 134.76 0 134.76-24.93 129.63-24.93 129.63-28.2 134.76-28.2 134.76-38.57 143.03-38.57 143.03-28.2 151.58-28.2 151.58-24.93 143.03-24.93ZM185.19-14.16L185.19-14.16Q185.19-11.96 184.61-10.03 184.02-8.11 182.98-6.47 181.95-4.83 180.48-3.53 179.02-2.22 177.27-1.32 175.52-0.42 173.53 0.07 171.55 0.56 169.45 0.56L169.45 0.56Q167.35 0.56 165.37 0.07 163.39-0.42 161.65-1.32 159.9-2.22 158.43-3.53 156.97-4.83 155.93-6.47 154.89-8.11 154.31-10.05 153.72-11.99 153.72-14.16L153.72-14.16Q153.72-16.33 154.31-18.27 154.89-20.21 155.93-21.85 156.97-23.49 158.43-24.79 159.9-26.1 161.65-27 163.39-27.91 165.37-28.39 167.35-28.88 169.45-28.88L169.45-28.88Q171.55-28.88 173.53-28.39 175.52-27.91 177.27-27 179.02-26.1 180.48-24.79 181.95-23.49 182.98-21.85 184.02-20.21 184.61-18.27 185.19-16.33 185.19-14.16ZM176.79-14.16L176.79-14.16Q176.79-15.33 176.66-16.64 176.53-17.94 176.21-19.2 175.89-20.46 175.34-21.62 174.79-22.78 173.99-23.65 173.18-24.51 172.06-25.04 170.93-25.56 169.45-25.56L169.45-25.56Q168.03-25.56 166.93-25.02 165.83-24.49 165.01-23.6 164.2-22.71 163.65-21.53 163.1-20.36 162.76-19.1 162.41-17.85 162.27-16.56 162.12-15.28 162.12-14.16L162.12-14.16Q162.12-13.04 162.27-11.76 162.41-10.47 162.76-9.2 163.1-7.93 163.65-6.77 164.2-5.62 165.01-4.72 165.83-3.83 166.93-3.3 168.03-2.76 169.45-2.76L169.45-2.76Q170.91-2.76 172.03-3.28 173.16-3.81 173.97-4.69 174.79-5.57 175.33-6.71 175.87-7.86 176.2-9.13 176.53-10.4 176.66-11.69 176.79-12.99 176.79-14.16Z" fill="#a30101" data-fill-palette-color="primary"></path><path d="M213.02-13.13L213.02 0 203.33 0 203.33-35.16 222.32-35.16Q224.79-35.16 227.05-34.5 229.3-33.84 231.04-32.51 232.77-31.18 233.81-29.16 234.85-27.15 234.85-24.44L234.85-24.44Q234.85-22.73 234.36-21.23 233.87-19.73 233-18.48 232.14-17.24 230.96-16.24 229.79-15.23 228.4-14.55 227.01-13.87 225.46-13.5 223.91-13.13 222.32-13.13L222.32-13.13 213.02-13.13ZM225.03-24.44L225.03-24.44Q225.03-27.83 223.31-29.77 221.59-31.71 218.12-31.71L218.12-31.71 213.02-31.71 213.02-16.46 218.12-16.46Q219.98-16.46 221.28-17.05 222.59-17.65 223.42-18.73 224.25-19.8 224.64-21.25 225.03-22.71 225.03-24.44ZM247.61-32.62L247.61 0 239.36 0 239.36-41.19 242.53-41.19 247.61-32.62ZM282.89-28.2L282.89 0 274.64 0 274.64-3.37Q273.17-1.37 271.11-0.4 269.04 0.56 266.58 0.56L266.58 0.56Q263.36 0.56 260.82-0.59 258.28-1.73 256.52-3.72 254.76-5.71 253.83-8.4 252.91-11.08 252.91-14.16L252.91-14.16Q252.91-17.24 253.83-19.92 254.76-22.61 256.52-24.6 258.28-26.59 260.82-27.73 263.36-28.88 266.58-28.88L266.58-28.88Q268.21-28.88 269.69-28.39 271.17-27.91 272.4-27.01 273.63-26.12 274.57-24.87 275.51-23.61 276.05-22.07L276.05-22.07 279.71-28.2 282.89-28.2ZM274.59-14.16L274.59-14.16Q274.59-15.26 274.48-16.48 274.37-17.7 274.1-18.9 273.83-20.09 273.35-21.18 272.88-22.27 272.13-23.11 271.39-23.95 270.34-24.44 269.29-24.93 267.9-24.93L267.9-24.93Q266.51-24.93 265.48-24.43 264.45-23.93 263.72-23.08 262.99-22.24 262.51-21.14 262.04-20.04 261.77-18.85 261.5-17.65 261.39-16.44 261.28-15.23 261.28-14.16L261.28-14.16Q261.28-13.09 261.39-11.87 261.5-10.64 261.77-9.45 262.04-8.25 262.51-7.15 262.99-6.05 263.72-5.21 264.45-4.37 265.48-3.87 266.51-3.37 267.9-3.37L267.9-3.37Q269.17-3.37 270.16-3.89 271.14-4.42 271.89-5.3 272.63-6.18 273.15-7.3 273.66-8.42 273.98-9.62 274.29-10.82 274.44-12 274.59-13.18 274.59-14.16ZM300.39-24.93L300.39 0 292.11 0 292.11-24.93 286.99-24.93 286.99-28.2 292.11-28.2 292.11-38.57 300.39-38.57 300.39-28.2 308.93-28.2 308.93-24.93 300.39-24.93ZM319.55-13.38L319.55-13.38Q321.07-13.04 322.58-12.84 324.09-12.65 325.63-12.65L325.63-12.65Q327.24-12.65 328.62-12.95 330-13.26 331.01-13.98 332.03-14.7 332.61-15.89 333.2-17.09 333.2-18.87L333.2-18.87Q333.2-20.31 332.81-21.51 332.42-22.71 331.65-23.56 330.88-24.41 329.76-24.89 328.63-25.37 327.15-25.37L327.15-25.37Q325.75-25.37 324.64-24.85 323.53-24.34 322.69-23.47 321.85-22.61 321.25-21.46 320.65-20.31 320.26-19.07 319.87-17.82 319.7-16.55 319.53-15.28 319.53-14.16L319.53-14.16Q319.53-13.96 319.53-13.77 319.53-13.57 319.55-13.38ZM339.89-18.95L339.89-18.95Q339.89-17.21 339.33-15.86 338.77-14.5 337.8-13.48 336.84-12.45 335.57-11.74 334.3-11.04 332.86-10.58 331.42-10.13 329.89-9.94 328.37-9.74 326.93-9.74L326.93-9.74Q325.09-9.74 323.31-10 321.53-10.25 319.8-10.82L319.8-10.82Q320.07-9.2 320.65-7.75 321.24-6.3 322.21-5.21 323.19-4.13 324.62-3.49 326.05-2.86 328-2.86L328-2.86Q329.29-2.86 330.47-3.25 331.64-3.64 332.61-4.35 333.59-5.05 334.34-6.03 335.08-7.01 335.54-8.2L335.54-8.2 339.11-6.88Q338.3-4.96 336.9-3.55 335.49-2.15 333.72-1.23 331.95-0.32 329.97 0.12 327.98 0.56 326.02 0.56L326.02 0.56Q322.8 0.56 320.07-0.52 317.33-1.61 315.35-3.56 313.38-5.52 312.25-8.23 311.13-10.94 311.13-14.16L311.13-14.16Q311.13-17.38 312.25-20.09 313.38-22.8 315.35-24.76 317.33-26.71 320.07-27.8 322.8-28.88 326.02-28.88L326.02-28.88Q327.58-28.88 329.22-28.66 330.86-28.44 332.39-27.97 333.93-27.49 335.3-26.73 336.67-25.98 337.68-24.87 338.69-23.75 339.29-22.29 339.89-20.83 339.89-18.95Z" fill="#d9caa1" data-fill-palette-color="secondary"></path></g></svg></g></svg></g></svg></g></svg></g><g transform="matrix(1,0,0,1,153.7225179589728,0)"><svg viewBox="0 0 88.07496408205442 88.07310065321528" height="88.07310065321528" width="88.07496408205442"><g><svg xmlns="http://www.w3.org/2000/svg" xmlns:xlink="http://www.w3.org/1999/xlink" version="1.1" x="0" y="0" viewBox="2.735 2.736 94.53 94.52799999999999" enable-background="new 0 0 100 100" xml:space="preserve" height="88.07310065321528" width="88.07496408205442" class="icon-icon-0" data-fill-palette-color="accent" id="icon-0"><g fill="#a30101" data-fill-palette-color="accent"><path fill="#a30101" d="M50.001 97.264C23.938 97.264 2.735 76.062 2.735 50 2.735 23.939 23.939 2.736 50.001 2.736S97.265 23.939 97.265 50 76.062 97.264 50.001 97.264M50.001 7.316C26.464 7.316 7.315 26.464 7.315 50S26.464 92.684 50.001 92.684 92.685 73.537 92.685 50 73.537 7.316 50.001 7.316" data-fill-palette-color="accent"></path></g><g fill="#a30101" data-fill-palette-color="accent"><path fill="#a30101" d="M50 79.652C33.649 79.652 20.347 66.35 20.347 50S33.649 20.349 50 20.349 79.651 33.65 79.651 50 66.351 79.652 50 79.652M50 24.929C36.175 24.929 24.927 36.175 24.927 50S36.175 75.072 50 75.072 75.071 63.825 75.071 50 63.824 24.929 50 24.929" data-fill-palette-color="accent"></path></g><g fill="#a30101" data-fill-palette-color="accent"><path fill="#a30101" d="M44.396 68.138C44.143 68.138 43.884 68.094 43.631 68.005A19.2 19.2 0 0 1 32.625 57.924 2.29 2.29 0 1 1 36.791 56.022 14.6 14.6 0 0 0 45.16 63.687 2.29 2.29 0 0 1 44.396 68.138" data-fill-palette-color="accent"></path></g></svg></g></svg></g><g></g></svg></g><defs></defs></svg><rect width="395.52" height="166.84665055410073" fill="none" stroke="none" visibility="hidden"></rect></g></svg></g></svg>